<svg width="20" height="21" viewBox="0 0 20 21" fill="none" xmlns="http://www.w3.org/2000/svg">
<path d="M10 4.48216C6.75446 4.48216 4.11607 7.12055 4.11161 10.3661C4.11161 11.4777 4.42411 12.5625 5.01339 13.4956L5.15179 13.7188L4.55804 15.8884L6.78571 15.3036L7 15.4331C7.90179 15.9688 8.9375 16.2545 9.99554 16.2545H10C13.2411 16.2545 15.9509 13.6161 15.9509 10.3706C15.9509 8.79912 15.2723 7.32145 14.1607 6.20984C13.0446 5.09377 11.5714 4.48216 10 4.48216ZM13.4598 12.8929C13.3125 13.3081 12.6071 13.6831 12.2679 13.7322C11.7054 13.817 11.2679 13.7723 10.1473 13.2902C8.375 12.5223 7.21429 10.7366 7.125 10.6206C7.03571 10.5045 6.40179 9.66073 6.40179 8.7902C6.40179 7.91966 6.85714 7.49109 7.02232 7.31252C7.18304 7.13395 7.375 7.0893 7.49554 7.0893C7.61161 7.0893 7.73214 7.0893 7.83482 7.09377C7.94196 7.09823 8.08929 7.05359 8.23214 7.39734C8.37946 7.75002 8.73214 8.62055 8.77679 8.70984C8.82143 8.79912 8.85268 8.9018 8.79018 9.01787C8.45089 9.69645 8.08929 9.66966 8.27232 9.98216C8.95536 11.1563 9.63839 11.5625 10.6786 12.0848C10.8571 12.1741 10.9598 12.1607 11.0625 12.0402C11.1652 11.9241 11.5045 11.5223 11.6205 11.3482C11.7366 11.1697 11.8571 11.2009 12.0179 11.2589C12.1786 11.317 13.0491 11.7456 13.2277 11.8348C13.4062 11.9241 13.5223 11.9688 13.567 12.0402C13.6071 12.125 13.6071 12.4822 13.4598 12.8929ZM17.8571 0.428589H2.14286C0.959821 0.428589 0 1.38841 0 2.57145V18.2857C0 19.4688 0.959821 20.4286 2.14286 20.4286H17.8571C19.0402 20.4286 20 19.4688 20 18.2857V2.57145C20 1.38841 19.0402 0.428589 17.8571 0.428589ZM9.99554 17.4464C8.80804 17.4464 7.64286 17.1473 6.61161 16.5848L2.85714 17.5714L3.86161 13.9018C3.24107 12.8304 2.91518 11.6116 2.91518 10.3616C2.91964 6.45984 6.09375 3.28573 9.99554 3.28573C11.8884 3.28573 13.6652 4.02234 15.0045 5.36162C16.3393 6.70091 17.1429 8.4777 17.1429 10.3706C17.1429 14.2723 13.8973 17.4464 9.99554 17.4464Z" fill="white"/>
</svg>
