<svg width="20" height="21" viewBox="0 0 20 21" fill="none" xmlns="http://www.w3.org/2000/svg">
<path d="M17.8571 0.428589H2.14286C1.57454 0.428589 1.02949 0.654354 0.627628 1.05622C0.225765 1.45808 0 2.00312 0 2.57145L0 18.2857C0 18.8541 0.225765 19.3991 0.627628 19.801C1.02949 20.2028 1.57454 20.4286 2.14286 20.4286H8.27009V13.629H5.45759V10.4286H8.27009V7.9893C8.27009 5.21475 9.92188 3.68216 12.4518 3.68216C13.6634 3.68216 14.9304 3.89823 14.9304 3.89823V6.62145H13.5344C12.1589 6.62145 11.7299 7.47502 11.7299 8.35046V10.4286H14.8004L14.3094 13.629H11.7299V20.4286H17.8571C18.4255 20.4286 18.9705 20.2028 19.3724 19.801C19.7742 19.3991 20 18.8541 20 18.2857V2.57145C20 2.00312 19.7742 1.45808 19.3724 1.05622C18.9705 0.654354 18.4255 0.428589 17.8571 0.428589Z" fill="white"/>
</svg>
