<svg width="59" height="22" viewBox="0 0 59 22" fill="none" xmlns="http://www.w3.org/2000/svg">
<path d="M2.8 1.35V18.75H10.6V21H0.25V1.35H2.8ZM19.2377 0.989998C21.4777 0.989998 23.1277 1.55 24.1877 2.67C25.2477 3.79 25.7777 5.38 25.7777 7.44V14.91C25.7777 16.97 25.2477 18.56 24.1877 19.68C23.1277 20.8 21.4777 21.36 19.2377 21.36C16.9977 21.36 15.3477 20.8 14.2877 19.68C13.2277 18.56 12.6977 16.97 12.6977 14.91V7.44C12.6977 5.38 13.2277 3.79 14.2877 2.67C15.3477 1.55 16.9977 0.989998 19.2377 0.989998ZM19.2377 3.24C17.9177 3.24 16.9177 3.57 16.2377 4.23C15.5777 4.89 15.2477 5.86 15.2477 7.14V15.18C15.2477 16.46 15.5777 17.44 16.2377 18.12C16.9177 18.78 17.9177 19.11 19.2377 19.11C20.5577 19.11 21.5477 18.78 22.2077 18.12C22.8877 17.44 23.2277 16.46 23.2277 15.18V7.17C23.2277 5.89 22.8877 4.92 22.2077 4.26C21.5477 3.58 20.5577 3.24 19.2377 3.24ZM42.8334 1.35L36.9234 21H33.5634L27.8334 1.35H30.5334L35.2434 18.54L40.1334 1.35H42.8334ZM58.0844 1.35V3.66H52.3844V21H49.8344V3.66H44.1344V1.35H58.0844Z" fill="#777777"/>
</svg>
